<svg width="12" height="21" viewBox="0 0 12 21" fill="none" xmlns="http://www.w3.org/2000/svg">
<path d="M11.093 19.6407C11.3683 19.3706 11.5229 19.0043 11.5229 18.6223C11.5229 18.2403 11.3683 17.874 11.093 17.6038L3.82442 10.4733L11.093 3.34276C11.3605 3.07107 11.5085 2.70719 11.5051 2.3295C11.5018 1.9518 11.3473 1.5905 11.0751 1.32342C10.8028 1.05633 10.4345 0.904836 10.0495 0.901554C9.66453 0.898272 9.29361 1.04347 9.01667 1.30587L0.709955 9.45486C0.434674 9.725 0.280029 10.0913 0.280029 10.4733C0.280029 10.8553 0.434674 11.2216 0.709955 11.4917L9.01667 19.6407C9.29203 19.9108 9.66546 20.0625 10.0548 20.0625C10.4442 20.0625 10.8176 19.9108 11.093 19.6407Z" fill="#2C9CF0"/>
</svg>
